<svg xmlns="http://www.w3.org/2000/svg" viewBox="0 0 528.11 178.62"><defs><style>.cls-1,.cls-2{fill:#21409a;}.cls-2{fill-rule:evenodd;}.cls-3{fill:#ab8942;}</style></defs><g id="Layer_2" data-name="Layer 2"><g id="Layer_1-2" data-name="Layer 1"><path class="cls-1" d="M168.29,123.77A87.86,87.86,0,0,1,.91,98.33,83,83,0,0,1,7.63,55.64,87.84,87.84,0,0,1,153.87,32.52a90.33,90.33,0,0,1,6.92,8.91c-.16-.22,0-1.19,0-1.47s.18-1.2,0-1.47A87.86,87.86,0,0,0,10.92,45.94,89.17,89.17,0,0,0,.29,87.45a98.77,98.77,0,0,0,1.87,21.43,87.35,87.35,0,0,0,7.43,21.23,87.85,87.85,0,0,0,152.78,7.66,90.28,90.28,0,0,0,5.92-11.06c.37-.82-.36-2.13,0-2.94Z" transform="translate(-0.28)"/><path class="cls-2" d="M26.45,37.41C28,49.53,34,70.58,48.17,73.26c26.7,5.06,29.68,5.18,52.58,21.85,13.16,9.59,19.36,16.09,22.16,32.29.77,4.43,1.06,5.15,4.32,8.29-3.39-3.08-3.69-3.8-4.6-8.26-3.75-18.36-13.08-25.12-28.69-34.42-18-10.68-26.09-13.49-46-18.2C33.25,71.33,27.76,50.31,26.45,37.41Z" transform="translate(-0.28)"/><path class="cls-2" d="M121.59,141.9c4.62,12.27,18.66,9.18,18.67,8.21.05-13.36-17.58-26.15-24.29-41.55-12.72-29.22-14.7-27.22-37.4-47.45C69.05,52.62,77.44,50.25,83.7,37c4.34-9.15,4.36-13.1,6.68-22.29.44-1.77,1-1.79,1.22-3.67a4.44,4.44,0,0,1-.17,1.11c-1.86,6.45-2.34,11.55-4.4,17.94-8,24.92-19.41,20.6-3.84,32.66,23.78,18.42,24.28,17.06,34.89,45.06,5.87,15.48,23.36,28.82,22.75,42.26C140.74,152.21,125.89,154.16,121.59,141.9Z" transform="translate(-0.28)"/><path class="cls-2" d="M92.73,68.41c7.83,2.19,28.89,7.07,27.41,19.25-.23,1.89-3.47,12.1-4,13.7.43-2.08,2.47-11.35,2.45-13.76C118.54,79.22,98.06,70.48,92.73,68.41Z" transform="translate(-0.28)"/><path class="cls-2" d="M111.09,111.31c-1,2.09-5,13.76-7.76,14.34-5.25,1.1-8.83-1.27-19,1.91,0,0-22,8.61-19.14,1.65,1.46-3.62,8.47-16.73,14.88-16.1,8.7.87,5.17,8.83,17.55,5.47-4.33,1.4-6.58,2.17-10.3-.72-11-8.56-13.58-.62-18.87,10.84,4-.74,15.29-3.2,15.31-3.21,10.2-2.1,14.42.09,19.42-.64,2.16-.32,7.18-12.21,7.89-13.54ZM67.84,130.06l-.1.21A.67.67,0,0,0,67.84,130.06Z" transform="translate(-0.28)"/><path class="cls-1" d="M172.48,25.61h29.81V35.78H182.8v9.87h19.49v10H182.8V70h19.49V80.21H172.48Z" transform="translate(-0.28)"/><path class="cls-1" d="M278.12,72.23l9.51,12.29H275.32l-4.83-6.22a28.83,28.83,0,0,1-33.78-5.2,28.2,28.2,0,0,1-8.14-20.21A28.35,28.35,0,0,1,242.78,28.1,27.77,27.77,0,0,1,257,24.24a27.14,27.14,0,0,1,20,8.39,27.91,27.91,0,0,1,8.34,20.45A27.78,27.78,0,0,1,278.12,72.23Zm-6.49-8.39A19,19,0,0,0,274.93,53a18.25,18.25,0,0,0-5.24-13.17A16.94,16.94,0,0,0,257,34.41a17.22,17.22,0,0,0-12.82,5.27A18.36,18.36,0,0,0,239,53.08q0,9.06,6.51,14.32a17.87,17.87,0,0,0,11.56,4.13,17,17,0,0,0,7-1.46l-9.78-12.58h12.4Z" transform="translate(-0.28)"/><path class="cls-1" d="M314.06,25.61h10.43V60.92a18.32,18.32,0,0,0,.8,6.45,6.38,6.38,0,0,0,2.64,3,8.22,8.22,0,0,0,4.43,1.14,8.55,8.55,0,0,0,4.73-1.27,6.65,6.65,0,0,0,2.75-3.2q.77-1.95.76-7.44v-34H351V58.16q0,8.25-.93,11.43a16.29,16.29,0,0,1-3.54,6.17,16.49,16.49,0,0,1-6,4.39,20.36,20.36,0,0,1-7.95,1.43,19.25,19.25,0,0,1-10.33-2.72A15.93,15.93,0,0,1,316,72q-1.89-4.11-1.89-13.87Z" transform="translate(-0.28)"/><path class="cls-1" d="M381.66,25.61H392v54.6H381.66Z" transform="translate(-0.28)"/><path class="cls-1" d="M423,25.61h10l23.36,35.93V25.61h10.39v54.6h-10L433.41,44.39V80.21H423Z" transform="translate(-0.28)"/><path class="cls-1" d="M498.56,25.61h29.8V35.78H508.88v9.87h19.48v10H508.88V70h19.48V80.21h-29.8Z" transform="translate(-0.28)"/><path class="cls-3" d="M170.22,97.8V92.41H200.4V97.8H188.12v49.68H182.5V97.8Z" transform="translate(-0.28)"/><path class="cls-3" d="M219.41,92.41H251V97.8H224.92v17.26h25.83v5.39H224.92v21.64h25.83v5.39H219.41Z" transform="translate(-0.28)"/><path class="cls-3" d="M271.56,147.48V92.41h1.2l36.66,42.21V92.41h5.42v55.07h-1.23l-36.36-41.7v41.7Z" transform="translate(-0.28)"/><path class="cls-3" d="M339.29,147.48V92.41h11.42q12.36,0,17.93,2a24,24,0,0,1,12.53,9.73,29.68,29.68,0,0,1,4.51,16.52,28.89,28.89,0,0,1-3.58,14.56,23,23,0,0,1-9.28,9.29q-5.71,3-16,3Zm5.28-5.2h6.36q11.43,0,15.84-1.43a18.24,18.24,0,0,0,9.77-7.27,22.42,22.42,0,0,0,3.56-12.85,23.6,23.6,0,0,0-3.86-13.62,19.45,19.45,0,0,0-10.74-7.74q-5.17-1.58-17-1.57h-3.89Z" transform="translate(-0.28)"/><path class="cls-3" d="M433.62,91a28.56,28.56,0,0,1,20.94,8.35,29.25,29.25,0,0,1,0,41.07,27.89,27.89,0,0,1-20.51,8.43,28.22,28.22,0,0,1-20.69-8.39A27.6,27.6,0,0,1,405,120.19a29.38,29.38,0,0,1,3.84-14.72A28.38,28.38,0,0,1,433.62,91Zm.24,5.35a23.53,23.53,0,0,0-20.14,11.77,23.88,23.88,0,0,0-3.07,12,23.15,23.15,0,0,0,23.21,23.34,23.62,23.62,0,0,0,11.87-3.11,22.27,22.27,0,0,0,8.51-8.5,23.9,23.9,0,0,0,3.06-12,23.26,23.26,0,0,0-3.06-11.86,22.8,22.8,0,0,0-8.61-8.49A23.31,23.31,0,0,0,433.86,96.37Z" transform="translate(-0.28)"/><path class="cls-3" d="M485.11,147.48V92.41h1.2L523,134.62V92.41h5.43v55.07h-1.23l-36.36-41.7v41.7Z" transform="translate(-0.28)"/></g></g></svg>