<?xml version="1.0" encoding="UTF-8"?><svg id="Layer_2" xmlns="http://www.w3.org/2000/svg" viewBox="0 0 277.02 323.13"><defs><style>.cls-1,.cls-2,.cls-3,.cls-4,.cls-5{stroke-width:0px;}.cls-2{fill:#28abe2;}.cls-3{fill:#6fbe44;}.cls-4{fill:#231f20;}.cls-5{fill:#012d34;}</style></defs><g id="Layer_1-2"><rect class="cls-1" x="134.51" width="7" height="154.3"/><path class="cls-2" d="m144.82,1.5v34.58s10.31,5.65,22.61,2.16c0,0,3.82-.83,9.31-5.32,0,0,7.48-6.98,22.95,3.33,0,0,2-11.81-22.61-20.62,0,0-26.44-7.32-32.26-14.13Z"/><path class="cls-3" d="m229.72,129.54c-.39-.13-39.2-12.71-86.85-13.04l.03-4c48.31.33,87.68,13.11,88.07,13.24l-1.25,3.8Z"/><path class="cls-3" d="m140.73,202.8c-99.74-.94-121.65-31.01-122.54-32.29-7.63-10-4.41-17.87-3.85-19.05,4.05-10.82,19.24-18.63,19.89-18.95,13.81-7.74,34.6-13.42,61.72-16.85,20.12-2.54,36.43-2.82,36.59-2.82l.06,4c-.64.01-64.39,1.2-96.49,19.2-.22.11-14.61,7.52-18.06,16.9l-.1.24c-.12.24-3.06,6.41,3.48,14.99.26.36,22.14,29.72,119.31,30.64.93,0,93.74-1.08,120.03-42.39h-107.92v-4h114.74l-1.58,2.94c-10.45,19.53-34.78,33.45-72.31,41.38-27.7,5.85-52.73,6.07-52.98,6.07Z"/><ellipse class="cls-1" cx="137.51" cy="153.63" rx="16.13" ry="5.65"/><path class="cls-4" d="m54.42,252.06l-3.88,3.68c-2.79-2.75-5.85-4.83-9.18-6.25-3.33-1.42-6.57-2.13-9.72-2.13-3.93,0-7.67.96-11.22,2.89-3.55,1.93-6.31,4.55-8.26,7.85-1.95,3.3-2.93,6.79-2.93,10.47s1.01,7.35,3.03,10.74c2.02,3.39,4.81,6.06,8.38,8,3.56,1.94,7.47,2.91,11.71,2.91,5.15,0,9.51-1.45,13.08-4.36,3.56-2.91,5.67-6.67,6.33-11.31h-15.97v-4.83h21.59c-.05,7.74-2.34,13.89-6.9,18.44-4.55,4.55-10.64,6.83-18.27,6.83-9.26,0-16.6-3.16-22-9.47-4.15-4.86-6.23-10.48-6.23-16.86,0-4.75,1.19-9.16,3.58-13.25,2.38-4.09,5.65-7.28,9.81-9.59,4.15-2.3,8.85-3.46,14.1-3.46,4.25,0,8.24.77,11.99,2.3,3.75,1.53,7.4,3.99,10.96,7.37Z"/><path class="cls-4" d="m73.17,243.65h5.01v50.09h-5.01v-50.09Z"/><path class="cls-4" d="m94.35,293.74l7.17-50.09h.81l20.36,41.1,20.17-41.1h.8l7.21,50.09h-4.91l-4.95-35.82-17.71,35.82h-1.28l-17.92-36.1-4.92,36.1h-4.84Z"/><path class="cls-4" d="m165.41,293.74l7.17-50.09h.81l20.36,41.1,20.17-41.1h.8l7.21,50.09h-4.91l-4.95-35.82-17.71,35.82h-1.28l-17.92-36.1-4.92,36.1h-4.84Z"/><path class="cls-4" d="m238.79,243.65h28.71v4.9h-23.7v15.7h23.5v4.9h-23.5v19.68h23.5v4.9h-28.5v-50.09Z"/><path class="cls-5" d="m53.57,312.88h1.43c.82,0,1.37.04,1.66.11.41.1.75.31,1.01.62.26.31.39.71.39,1.18s-.13.87-.38,1.18c-.25.31-.6.52-1.05.63-.33.08-.93.12-1.83.12h-.51v3.34h-.72v-7.18Zm.72.7v2.44h1.22c.49.01.85-.03,1.08-.12.23-.09.41-.23.54-.43.13-.2.2-.42.2-.67s-.06-.46-.2-.66c-.13-.2-.3-.34-.52-.43-.21-.08-.56-.13-1.05-.13h-1.27Z"/><path class="cls-5" d="m62.5,312.88h.72v6.49h2.76v.69h-3.48v-7.18Z"/><path class="cls-5" d="m73.05,312.88l3.35,7.18h-.78l-1.13-2.36h-3.09l-1.12,2.36h-.8l3.39-7.18h.18Zm-.09,1.53l-1.23,2.6h2.46l-1.23-2.6Z"/><path class="cls-5" d="m80.52,320.06v-7.18h.16l4.78,5.51v-5.51h.71v7.18h-.16l-4.74-5.44v5.44h-.74Z"/><path class="cls-5" d="m98.81,312.7h.7v9.31h-.7v-9.31Z"/><path class="cls-5" d="m112.16,312.88h1.43c.82,0,1.37.04,1.66.11.41.1.75.31,1.01.62.26.31.39.71.39,1.18s-.13.87-.38,1.18c-.25.31-.6.52-1.05.63-.33.08-.93.12-1.83.12h-.51v3.34h-.72v-7.18Zm.72.7v2.44h1.22c.49.01.85-.03,1.08-.12.23-.09.41-.23.54-.43.13-.2.2-.42.2-.67s-.06-.46-.2-.66c-.13-.2-.3-.34-.52-.43-.21-.08-.56-.13-1.05-.13h-1.27Z"/><path class="cls-5" d="m121.08,312.88h.72v6.49h2.76v.69h-3.48v-7.18Z"/><path class="cls-5" d="m131.64,312.88l3.35,7.18h-.78l-1.13-2.36h-3.09l-1.12,2.36h-.8l3.39-7.18h.18Zm-.09,1.53l-1.23,2.6h2.46l-1.23-2.6Z"/><path class="cls-5" d="m138.54,312.88h.83l1.84,2.96,1.81-2.96h.83l-2.28,3.75v3.43h-.71v-3.43l-2.32-3.75Z"/><path class="cls-5" d="m155.92,312.7h.7v9.31h-.7v-9.31Z"/><path class="cls-5" d="m163.4,312.88h.72v7.18h-.72v-7.18Z"/><path class="cls-5" d="m168.44,320.06l1.03-7.18h.12l2.92,5.89,2.89-5.89h.12l1.03,7.18h-.7l-.71-5.14-2.54,5.14h-.18l-2.57-5.18-.71,5.18h-.69Z"/><path class="cls-5" d="m180.95,312.88h1.43c.82,0,1.37.04,1.66.11.41.1.75.31,1.01.62.26.31.39.71.39,1.18s-.13.87-.38,1.18c-.25.31-.6.52-1.05.63-.33.08-.93.12-1.83.12h-.51v3.34h-.72v-7.18Zm.72.7v2.44h1.22c.49.01.85-.03,1.08-.12.23-.09.41-.23.54-.43.13-.2.2-.42.2-.67s-.07-.46-.2-.66c-.13-.2-.3-.34-.51-.43-.21-.08-.56-.13-1.05-.13h-1.27Z"/><path class="cls-5" d="m189.91,312.88h1.43c.8,0,1.34.03,1.62.1.43.1.77.31,1.04.63.27.32.4.72.4,1.19,0,.39-.09.74-.28,1.03-.18.3-.45.52-.79.67s-.81.23-1.42.23l2.58,3.33h-.89l-2.58-3.33h-.41v3.33h-.72v-7.18Zm.72.7v2.44h1.24c.48,0,.83-.04,1.06-.13.23-.09.41-.24.54-.44s.19-.42.19-.67-.07-.46-.2-.66c-.13-.2-.3-.34-.51-.42s-.56-.13-1.06-.13h-1.27Z"/><path class="cls-5" d="m202.37,312.7c1.09,0,2,.36,2.73,1.09.73.73,1.1,1.62,1.1,2.68s-.37,1.94-1.1,2.68-1.62,1.1-2.67,1.1-1.96-.36-2.7-1.09c-.73-.73-1.1-1.61-1.1-2.65,0-.69.17-1.33.5-1.92s.79-1.05,1.37-1.38c.58-.33,1.2-.5,1.87-.5Zm.03.7c-.53,0-1.04.14-1.51.42-.48.28-.85.65-1.11,1.12-.27.47-.4.99-.4,1.57,0,.85.3,1.58.89,2.16s1.3.88,2.14.88c.56,0,1.07-.13,1.55-.41s.84-.64,1.11-1.11c.27-.47.4-.99.4-1.56s-.13-1.09-.4-1.55-.64-.83-1.12-1.11c-.48-.28-.99-.42-1.54-.42Z"/><path class="cls-5" d="m210.09,312.88h.78l2.38,5.55,2.42-5.55h.78l-3.12,7.18h-.16l-3.08-7.18Z"/><path class="cls-5" d="m220.66,312.88h4.12v.7h-3.4v2.25h3.37v.7h-3.37v2.82h3.37v.7h-4.09v-7.18Z"/></g></svg>